<svg xmlns="http://www.w3.org/2000/svg" >
    <symbol id="nom" viewBox="0 0 235.307 29.065">
        <path d="M25.913 22.609a9.725 9.725 0 01-6.4-2.314 9.238 9.238 0 01-3.109-6.131A8.857 8.857 0 0118.372 7.5a10 10 0 016.9-3.5c.34-.03.683-.045 1.02-.045a10.018 10.018 0 016.5 2.253 8.489 8.489 0 012.981 6.213 9.5 9.5 0 01-2.285 7.01 9.813 9.813 0 01-6.555 3.13 10.88 10.88 0 01-1.02.048zm-.091-18.5c-.187 0-.375.008-.558.024-3.9.358-7.6 3.84-7.15 9.8.425 5.6 4.42 8.531 8.147 8.531a7.2 7.2 0 00.641-.029c3.844-.328 7.58-4.075 7.177-9.776-.374-5.356-4.491-8.554-8.253-8.554zM62.37 22.382h-5.1v-.131a4.684 4.684 0 003.2-3.068c.9-2.248 5.826-14.875 5.876-15h.13c.041.108 4.929 12.96 5.591 14.586l.077.183c.681 1.623 1.386 3.3 2.964 3.3v.13h-5.171v-.131h.008c.629 0 1.017-.138 1.221-.436.262-.381.209-1.037-.163-2.007-.165-.475-.573-1.528-1.09-2.862-.219-.566-.457-1.178-.7-1.818h-7.02a152.234 152.234 0 01-1.274 3.3 3.507 3.507 0 00-.054 3.135 1.707 1.707 0 001.511.686v.131zM65.699 6.13c-.8 2.078-2.321 6-3.459 8.892h6.916c-1.351-3.501-3.102-8.017-3.457-8.892zM43.261 22.382h-4.732v-.131c1.528 0 1.638-1.081 1.638-2.86V7.171c0-1.78-.11-2.86-1.638-2.86V4.18h4.732v.131c-1.449 0-1.612.872-1.638 2.86v6.057h11.414V7.171c-.024-1.989-.191-2.861-1.638-2.861v-.13h4.706v.131c-1.448 0-1.611.872-1.638 2.86V19.39c.027 1.989.191 2.86 1.638 2.86v.13h-4.706v-.131c1.448 0 1.611-.872 1.638-2.86v-6.031H41.623v6.032c.026 1.989.189 2.86 1.638 2.86v.131zm39.182 0H76.15v-.131h.005a2.633 2.633 0 002.26-1.045 5.7 5.7 0 00.8-3.347V6.261c-1.05-1.312-1.994-1.95-2.886-1.95V4.18h3.328l12.222 15.841-.491 1.8c-1.256-1.6-4.864-6.22-7.764-9.934l-.021-.027c-2.159-2.764-4.024-5.152-4.255-5.439v11.44c0 2.916 1.041 4.394 3.094 4.394v.13zm-71.578 0H6.029v-.131c1.46 0 1.612-.872 1.612-2.86v-4.915c-1.536-2.726-2.198-3.805-2.728-4.672-.28-.453-.52-.844-.835-1.383l-.049-.085C3.095 6.731 1.684 4.31.1 4.31v-.13h4.785v.131H4.88a.588.588 0 00-.543.271c-.294.483.011 1.454.288 1.99.548 1.072 4.071 6.994 4.55 7.774a741.675 741.675 0 001.774-4.015v-.011c.382-.87.684-1.557.794-1.8.7-1.577.829-2.844.361-3.565a1.577 1.577 0 00-1.421-.645v-.13h5.278v.131c-1.8.437-2.88 1.443-3.848 3.588-.341.794-.894 2.066-1.48 3.414v.01c-.487 1.119-.99 2.277-1.4 3.232v4.836c0 1.944.162 2.86 1.638 2.86v.13zm81.07-2.561h0V8.73a5.764 5.764 0 00-.8-3.37 2.634 2.634 0 00-2.265-1.05v-.13h6.292v.131c-2.054 0-3.094 1.488-3.094 4.42v10.62z" fill="#cba837" stroke="#cba837" stroke-width=".2"></path>
        <path d="M190.1 22.653h0a10.932 10.932 0 01-6.858-2.3 8.821 8.821 0 01-3.31-6.3 8.971 8.971 0 012.259-7.01 10.277 10.277 0 016.763-3.1c.334-.027.672-.04 1.006-.04a11.084 11.084 0 016.831 2.233 8.353 8.353 0 013.259 6.078 9.527 9.527 0 01-2.242 7.238 10.021 10.021 0 01-6.728 3.162 12.29 12.29 0 01-.98.039zm-.872-18.589c-.1 0-.2 0-.3.013-1.449.15-2.7 1.234-3.511 3.055a13.073 13.073 0 00-.858 6.565 13.244 13.244 0 002.2 6.237 5.234 5.234 0 004.066 2.56c.086 0 .174 0 .26-.01 1.461-.164 2.654-1.21 3.452-3.026a14.554 14.554 0 00.917-6.672c-.34-4.811-3.133-8.723-6.226-8.722zM96.627 22.64a13.011 13.011 0 01-3.4-.494 4.46 4.46 0 00-1.096-.191.985.985 0 00-.891.409l.726-2.662a5.186 5.186 0 004.583 2.808 2.7 2.7 0 003.042-2.7c0-2.326-1.917-3.478-3.947-4.7a24.417 24.417 0 01-2.061-1.335l1.484-5.443a10.206 10.206 0 003.415 2.728c2.4 1.451 4.879 2.951 4.879 6.042 0 3.364-2.644 5.538-6.734 5.538zm110.526-.259h-6.552v-.13c1.9 0 3.224-2.021 3.224-4.914V6.754c-.806-1.137-1.88-2.444-3.042-2.444v-.135h6.058l9.776 12.74v-7.7c0-2.893-1.326-4.914-3.224-4.914v-.126h6.552v.13c-1.884 0-3.2 2.021-3.2 4.914v13.156h-.754c-.652-.77-11.677-14.914-12.038-15.444v10.4c0 2.893 1.315 4.914 3.2 4.914v.13zm-44.72 0h-6.552v-.13c1.9 0 3.224-2.021 3.224-4.914V6.026a3.335 3.335 0 00-2.522-1.716v-.135h6.058l5.59 10.738 4.42-10.738h5.668v.13c-1.528.006-1.638 1.086-1.638 2.865v12.22c0 1.944.162 2.86 1.638 2.86v.125h-7.306v-.13c1.448 0 1.611-.872 1.638-2.86V4.466l-5.876 14.248h-.676c-.062-.115-6.4-11.859-6.864-12.532v11.154c0 2.893 1.315 4.914 3.2 4.914v.13zm-20.306 0h-5.536v-.13c1.727-.324 2.93-1.567 3.9-4.03l5.484-14.046h.572c.035.089 5.081 12.86 5.772 14.56l.09.214c.68 1.62 1.384 3.3 2.952 3.3v.126h-7.7v-.13h.009c.557 0 .875-.1 1.029-.324.22-.32.13-.919-.31-2.067-.195-.545-.628-1.687-1.13-3.01v-.005l-.532-1.4h-5.017c-.15.379-.28.713-.389.99v.006a45.52 45.52 0 01-.337.85c-.607 1.646-.6 3.483.019 4.369a1.309 1.309 0 001.126.6v.13zm2.106-13.417c-.34.866-.7 1.786-1.046 2.675v.007a481.988 481.988 0 01-1.448 3.687h4.94c-.5-1.311-1.034-2.7-1.46-3.812-.497-1.295-.888-2.319-.986-2.557zm-35.854 13.417h-5.539v-.13c1.727-.324 2.93-1.567 3.9-4.03l5.486-14.046h.572c.035.089 5.081 12.86 5.772 14.56l.09.214c.68 1.62 1.384 3.3 2.952 3.3v.126h-7.7v-.13h.009c.558 0 .875-.1 1.029-.324.22-.32.13-.919-.31-2.067-.195-.545-.628-1.687-1.13-3.01v-.005l-.532-1.4h-5.015l-.423 1.077v.009c-.155.4-.257.657-.3.76-.607 1.645-.6 3.483.018 4.369a1.309 1.309 0 001.126.6v.13zm2.106-13.417c-.339.862-.7 1.777-1.04 2.661a490.313 490.313 0 01-1.456 3.709h4.94c-.5-1.311-1.034-2.7-1.46-3.812-.496-1.296-.886-2.32-.984-2.558zm123.629 13.411h-12.87v-.13c1.477 0 1.638-.917 1.638-2.86V7.17c0-1.779-.11-2.859-1.638-2.859v-.136h12.038l.884 3.77h-.13c-.607-1.36-2.04-3.64-4.837-3.64h-.65c-1.447 0-1.611.871-1.638 2.859v6.09h.391a3.552 3.552 0 003.64-3.353h.13v6.812h-.13a3.2 3.2 0 00-1.08-2.359 3.765 3.765 0 00-2.56-1h-.391v6.032c.027 1.989.19 2.86 1.638 2.86h1.456c2.654 0 4.3-2.8 5.044-4.472h.131l-1.066 4.6zm-98.878 0h-12.845v-.13c1.477 0 1.638-.917 1.638-2.86V7.17c0-1.779-.11-2.859-1.638-2.859v-.136h7.306v.13c-1.448 0-1.611.872-1.638 2.859v12.22c.027 1.989.19 2.86 1.638 2.86h1.455c2.653 0 4.3-2.8 5.044-4.472h.13l-1.092 4.6zM102.113 9.9h-.131a6.584 6.584 0 00-1.357-4.217 4.479 4.479 0 00-3.504-1.633 2.633 2.633 0 00-.93.161l.069-.253c.266-.025.538-.038.809-.038a7.754 7.754 0 012.611.5c.272.088.551.178.847.259a2.1 2.1 0 00.554.089c.624 0 .9-.477.9-1.545h.131v6.676z" fill="#fff" stroke="#fff" stroke-width=".2"></path>
        <path fill="none" stroke="#fff" stroke-width=".3" d="M97.347.039l-7.905 28.986"></path>
    </symbol>
</svg>