<svg xmlns="http://www.w3.org/2000/svg">
    <symbol id="nom" viewBox="0 0 235.307 29.065">
        <path d="M25.913 22.609a9.725 9.725 0 01-6.4-2.314 9.238 9.238 0 01-3.109-6.131A8.857 8.857 0 0118.372 7.5a10 10 0 016.9-3.5c.34-.03.683-.045 1.02-.045a10.018 10.018 0 016.5 2.253 8.489 8.489 0 012.981 6.213 9.5 9.5 0 01-2.285 7.01 9.813 9.813 0 01-6.555 3.13 10.88 10.88 0 01-1.02.048zm-.091-18.5c-.187 0-.375.008-.558.024-3.9.358-7.6 3.84-7.15 9.8.425 5.6 4.42 8.531 8.147 8.531a7.2 7.2 0 00.641-.029c3.844-.328 7.58-4.075 7.177-9.776-.374-5.356-4.491-8.554-8.253-8.554zM62.37 22.382h-5.1v-.131a4.684 4.684 0 003.2-3.068c.9-2.248 5.826-14.875 5.876-15h.13c.041.108 4.929 12.96 5.591 14.586l.077.183c.681 1.623 1.386 3.3 2.964 3.3v.13h-5.171v-.131h.008c.629 0 1.017-.138 1.221-.436.262-.381.209-1.037-.163-2.007-.165-.475-.573-1.528-1.09-2.862-.219-.566-.457-1.178-.7-1.818h-7.02a152.234 152.234 0 01-1.274 3.3 3.507 3.507 0 00-.054 3.135 1.707 1.707 0 001.511.686v.131zM65.699 6.13c-.8 2.078-2.321 6-3.459 8.892h6.916c-1.351-3.501-3.102-8.017-3.457-8.892zM43.261 22.382h-4.732v-.131c1.528 0 1.638-1.081 1.638-2.86V7.171c0-1.78-.11-2.86-1.638-2.86V4.18h4.732v.131c-1.449 0-1.612.872-1.638 2.86v6.057h11.414V7.171c-.024-1.989-.191-2.861-1.638-2.861v-.13h4.706v.131c-1.448 0-1.611.872-1.638 2.86V19.39c.027 1.989.191 2.86 1.638 2.86v.13h-4.706v-.131c1.448 0 1.611-.872 1.638-2.86v-6.031H41.623v6.032c.026 1.989.189 2.86 1.638 2.86v.131zm39.182 0H76.15v-.131h.005a2.633 2.633 0 002.26-1.045 5.7 5.7 0 00.8-3.347V6.261c-1.05-1.312-1.994-1.95-2.886-1.95V4.18h3.328l12.222 15.841-.491 1.8c-1.256-1.6-4.864-6.22-7.764-9.934l-.021-.027c-2.159-2.764-4.024-5.152-4.255-5.439v11.44c0 2.916 1.041 4.394 3.094 4.394v.13zm-71.578 0H6.029v-.131c1.46 0 1.612-.872 1.612-2.86v-4.915c-1.536-2.726-2.198-3.805-2.728-4.672-.28-.453-.52-.844-.835-1.383l-.049-.085C3.095 6.731 1.684 4.31.1 4.31v-.13h4.785v.131H4.88a.588.588 0 00-.543.271c-.294.483.011 1.454.288 1.99.548 1.072 4.071 6.994 4.55 7.774a741.675 741.675 0 001.774-4.015v-.011c.382-.87.684-1.557.794-1.8.7-1.577.829-2.844.361-3.565a1.577 1.577 0 00-1.421-.645v-.13h5.278v.131c-1.8.437-2.88 1.443-3.848 3.588-.341.794-.894 2.066-1.48 3.414v.01c-.487 1.119-.99 2.277-1.4 3.232v4.836c0 1.944.162 2.86 1.638 2.86v.13zm81.07-2.561h0V8.73a5.764 5.764 0 00-.8-3.37 2.634 2.634 0 00-2.265-1.05v-.13h6.292v.131c-2.054 0-3.094 1.488-3.094 4.42v10.62z" fill="#cba837" stroke="#cba837" stroke-width=".2"></path>
        <path d="M190.1 22.653h0a10.932 10.932 0 01-6.858-2.3 8.821 8.821 0 01-3.31-6.3 8.971 8.971 0 012.259-7.01 10.277 10.277 0 016.763-3.1c.334-.027.672-.04 1.006-.04a11.084 11.084 0 016.831 2.233 8.353 8.353 0 013.259 6.078 9.527 9.527 0 01-2.242 7.238 10.021 10.021 0 01-6.728 3.162 12.29 12.29 0 01-.98.039zm-.872-18.589c-.1 0-.2 0-.3.013-1.449.15-2.7 1.234-3.511 3.055a13.073 13.073 0 00-.858 6.565 13.244 13.244 0 002.2 6.237 5.234 5.234 0 004.066 2.56c.086 0 .174 0 .26-.01 1.461-.164 2.654-1.21 3.452-3.026a14.554 14.554 0 00.917-6.672c-.34-4.811-3.133-8.723-6.226-8.722zM96.627 22.64a13.011 13.011 0 01-3.4-.494 4.46 4.46 0 00-1.096-.191.985.985 0 00-.891.409l.726-2.662a5.186 5.186 0 004.583 2.808 2.7 2.7 0 003.042-2.7c0-2.326-1.917-3.478-3.947-4.7a24.417 24.417 0 01-2.061-1.335l1.484-5.443a10.206 10.206 0 003.415 2.728c2.4 1.451 4.879 2.951 4.879 6.042 0 3.364-2.644 5.538-6.734 5.538zm110.526-.259h-6.552v-.13c1.9 0 3.224-2.021 3.224-4.914V6.754c-.806-1.137-1.88-2.444-3.042-2.444v-.135h6.058l9.776 12.74v-7.7c0-2.893-1.326-4.914-3.224-4.914v-.126h6.552v.13c-1.884 0-3.2 2.021-3.2 4.914v13.156h-.754c-.652-.77-11.677-14.914-12.038-15.444v10.4c0 2.893 1.315 4.914 3.2 4.914v.13zm-44.72 0h-6.552v-.13c1.9 0 3.224-2.021 3.224-4.914V6.026a3.335 3.335 0 00-2.522-1.716v-.135h6.058l5.59 10.738 4.42-10.738h5.668v.13c-1.528.006-1.638 1.086-1.638 2.865v12.22c0 1.944.162 2.86 1.638 2.86v.125h-7.306v-.13c1.448 0 1.611-.872 1.638-2.86V4.466l-5.876 14.248h-.676c-.062-.115-6.4-11.859-6.864-12.532v11.154c0 2.893 1.315 4.914 3.2 4.914v.13zm-20.306 0h-5.536v-.13c1.727-.324 2.93-1.567 3.9-4.03l5.484-14.046h.572c.035.089 5.081 12.86 5.772 14.56l.09.214c.68 1.62 1.384 3.3 2.952 3.3v.126h-7.7v-.13h.009c.557 0 .875-.1 1.029-.324.22-.32.13-.919-.31-2.067-.195-.545-.628-1.687-1.13-3.01v-.005l-.532-1.4h-5.017c-.15.379-.28.713-.389.99v.006a45.52 45.52 0 01-.337.85c-.607 1.646-.6 3.483.019 4.369a1.309 1.309 0 001.126.6v.13zm2.106-13.417c-.34.866-.7 1.786-1.046 2.675v.007a481.988 481.988 0 01-1.448 3.687h4.94c-.5-1.311-1.034-2.7-1.46-3.812-.497-1.295-.888-2.319-.986-2.557zm-35.854 13.417h-5.539v-.13c1.727-.324 2.93-1.567 3.9-4.03l5.486-14.046h.572c.035.089 5.081 12.86 5.772 14.56l.09.214c.68 1.62 1.384 3.3 2.952 3.3v.126h-7.7v-.13h.009c.558 0 .875-.1 1.029-.324.22-.32.13-.919-.31-2.067-.195-.545-.628-1.687-1.13-3.01v-.005l-.532-1.4h-5.015l-.423 1.077v.009c-.155.4-.257.657-.3.76-.607 1.645-.6 3.483.018 4.369a1.309 1.309 0 001.126.6v.13zm2.106-13.417c-.339.862-.7 1.777-1.04 2.661a490.313 490.313 0 01-1.456 3.709h4.94c-.5-1.311-1.034-2.7-1.46-3.812-.496-1.296-.886-2.32-.984-2.558zm123.629 13.411h-12.87v-.13c1.477 0 1.638-.917 1.638-2.86V7.17c0-1.779-.11-2.859-1.638-2.859v-.136h12.038l.884 3.77h-.13c-.607-1.36-2.04-3.64-4.837-3.64h-.65c-1.447 0-1.611.871-1.638 2.859v6.09h.391a3.552 3.552 0 003.64-3.353h.13v6.812h-.13a3.2 3.2 0 00-1.08-2.359 3.765 3.765 0 00-2.56-1h-.391v6.032c.027 1.989.19 2.86 1.638 2.86h1.456c2.654 0 4.3-2.8 5.044-4.472h.131l-1.066 4.6zm-98.878 0h-12.845v-.13c1.477 0 1.638-.917 1.638-2.86V7.17c0-1.779-.11-2.859-1.638-2.859v-.136h7.306v.13c-1.448 0-1.611.872-1.638 2.859v12.22c.027 1.989.19 2.86 1.638 2.86h1.455c2.653 0 4.3-2.8 5.044-4.472h.13l-1.092 4.6zM102.113 9.9h-.131a6.584 6.584 0 00-1.357-4.217 4.479 4.479 0 00-3.504-1.633 2.633 2.633 0 00-.93.161l.069-.253c.266-.025.538-.038.809-.038a7.754 7.754 0 012.611.5c.272.088.551.178.847.259a2.1 2.1 0 00.554.089c.624 0 .9-.477.9-1.545h.131v6.676z" fill="#fff" stroke="#fff" stroke-width=".2"></path>
        <path fill="none" stroke="#fff" stroke-width=".3" d="M97.347.039l-7.905 28.986"></path>
    </symbol>
    <symbol id="dev" viewBox="0 0 182.833 68.829">
        <path d="M130.583 56.796h0c-.5-7.75 5.2-13.2 12.15-13.7 5.9-.45 10.4 2.8 11.35 8.5h-18.85a20.924 20.924 0 00-.2 5.05c.65 7.45 4.7 12 10.049 11.85a11.728 11.728 0 007.851-3.5v.55a12.42 12.42 0 01-7.851 3.15q-.524.033-1.046.033c-6.666 0-12.882-4.092-13.453-11.933zm4.7-5.4h14.55c-.4-4.1-2-8-7.1-8.1h-.083c-3.806-.001-6.474 3.434-7.367 8.099zm31.151 14.15c-1.9-2.3-5.6 2.7-5.6 2.7h-.1v-31.1c-.049-3.65-.3-5.45-3.15-5.45v-.25h8.1v.25c-.5.25-.85 2.5-.85 7.5v8.55a8 8 0 017.3-4.7c5.449 0 10.6 4.6 10.6 12.85 0 8.1-3.25 12.8-10.15 12.8a7.419 7.419 0 01-6.15-3.151zm-1.6-17.2v7.55a29.273 29.273 0 00.6 6.9c.85 2.9 3.15 5.45 5.9 5.45 5.15 0 7.3-4.25 7.3-12.35 0-7.75-2.65-12.451-7.5-12.451a7.388 7.388 0 00-6.3 4.9zm-48.35 19.9l-9.35-27.8-8.1 27.8h-.45s-8.15-23.75-9.55-28.05c-1.4-4.05-2.75-6.7-5.85-6.7v-.25h11.849v.25c-2.25 0-2.8.95-1.85 4.05 1.1 3.55 7.25 21.75 7.8 23.35l8-27.65h.6l9.2 28.2c2.15-7.3 5.3-18 5.6-19.35.9-3.8.6-8.6-2.8-8.6v-.25h10.7v.25c-3.2.6-5.9 3.3-7.3 7.75-1.45 4.6-8 27-8 27zm14.1-11.45h0zm-35.257-33.4v-.125c1.425 0 1.575-.9 1.575-2.725V9.025c0-1.85-.15-2.75-1.575-2.75V6.15h4.075v.125c-.175.076-.326.675-.4 1.925a3.923 3.923 0 013.6-2.275c2.725 0 5.5 1.976 5.5 6.4s-2.775 6.425-5.5 6.425a3.946 3.946 0 01-3.625-2.375v4.175c0 1.825.15 2.725 1.575 2.725v.125zm3.675-14.9c-.025.45-.025.95-.025 1.526v6.05a3.687 3.687 0 003.15 2.5c2.425 0 3.925-2.125 3.925-6.251 0-4.1-1.5-6.224-3.925-6.224A3.673 3.673 0 0099 8.5zm-18.2 14.9v-.125c1.425 0 1.575-.9 1.575-2.725V9.025c0-1.85-.15-2.75-1.575-2.75V6.15h4.075v.125c-.175.076-.325.675-.4 1.925a3.923 3.923 0 013.6-2.275c2.725 0 5.5 1.976 5.5 6.4s-2.775 6.425-5.5 6.425a3.946 3.946 0 01-3.625-2.375v4.175c0 1.825.15 2.725 1.575 2.725v.125zm3.675-14.9c-.025.45-.025.95-.025 1.526v6.05a3.688 3.688 0 003.15 2.5c2.425 0 3.926-2.125 3.926-6.251 0-4.1-1.5-6.224-3.926-6.224A3.673 3.673 0 0084.475 8.5zm-18.2 4.425a6.394 6.394 0 016.1-7 6.037 6.037 0 016.75 5.85c.125 3.475-2.075 6.625-5.625 6.951q-.367.035-.729.035a6.215 6.215 0 01-6.497-5.832zm6.1-6.9c-2.725.225-4.2 2.925-3.925 6.75.3 3.926 2.325 6.2 5.05 5.85 2.325-.325 3.649-3.4 3.424-6.75-.193-3-1.862-5.86-4.3-5.86-.085.004-.167.007-.25.014zm53.2 8.726V9.025c0-1.85-.15-2.75-1.575-2.75V6.15h4.05v.125c-.225.125-.4 1.25-.4 3.75v4.85c0 1.7.275 3.7 2.7 3.7a3.8 3.8 0 003.2-2.426c0-.425.025-.949.025-1.525v-5.6c-.025-1.85-.15-2.75-1.575-2.75V6.15h4.05v.125c-.25.125-.425 1.25-.425 3.75v5.625c.024 1.825.149 2.725 1.575 2.725v.125h-4.05v-.125c.175-.076.3-.675.374-1.9a4.039 4.039 0 01-3.65 2.274c-2.475.001-4.3-1.024-4.3-3.999zm-15.327-1.972h0a6.354 6.354 0 016.075-6.85A4.987 4.987 0 01122 10.176h-9.426a10.527 10.527 0 00-.1 2.524c.325 3.725 2.35 6 5.026 5.925a5.858 5.858 0 003.925-1.75v.275a6.21 6.21 0 01-3.925 1.575q-.262.017-.523.017c-3.333 0-6.442-2.046-6.727-5.967zm2.35-2.7h7.276c-.2-2.049-1-4-3.55-4.05h-.04c-1.904 0-3.239 1.712-3.686 4.05zm-67.424 2.7h0a6.353 6.353 0 016.075-6.85 4.987 4.987 0 015.674 4.251h-9.424a10.435 10.435 0 00-.1 2.524c.325 3.725 2.35 6 5.025 5.925a5.854 5.854 0 003.925-1.75v.275a6.21 6.21 0 01-3.925 1.575q-.262.017-.523.017c-3.335 0-6.442-2.046-6.727-5.967zm2.35-2.7h7.275c-.2-2.049-1-4-3.55-4.05h-.04c-1.904 0-3.238 1.712-3.685 4.05zm-28.976 2.7h0a6.354 6.354 0 016.075-6.85 4.987 4.987 0 015.675 4.251h-9.424a10.48 10.48 0 00-.1 2.524c.326 3.725 2.351 6 5.026 5.925a5.856 5.856 0 003.925-1.75v.275a6.21 6.21 0 01-3.925 1.575q-.262.017-.523.017c-3.335 0-6.443-2.046-6.729-5.967zm2.35-2.7h7.276c-.2-2.049-1-4-3.551-4.05h-.04c-1.903 0-3.238 1.712-3.685 4.05zm118.8 8.426v-.125c1.426 0 1.575-.925 1.575-2.75v-6.6c0-1.85-.149-2.75-1.575-2.75V6.15h4.05v.125c-.225.125-.4 1.15-.425 3.451.626-2.275 2.6-3.7 3.551-3.8 1-.125 1.775.35 1.75 1.15a.931.931 0 01-1.475.75c-.625-.4-.625-1.2-1.55-.924-.875.249-1.9 1.724-2.25 3.1l-.025 5.625c.025 1.825.15 2.75 1.575 2.75v.125zm-80.9 0v-.125c1.426 0 1.575-.925 1.575-2.75V2.95c0-1.825-.149-2.725-1.575-2.725V.1h4.075v.125c-.25.125-.425 1.25-.425 3.75v11.65c0 1.825.15 2.75 1.575 2.75v.125zm-20.475 0S34.4 9.85 33.85 8.625c-.5-1.1-.95-2.35-2.05-2.35V6.15h4.275v.125c-.875 0-.924.425-.4 1.675.5 1.225 3.425 7.726 3.625 8.176.875-2.5 2.174-6.125 2.325-6.5.45-1.274.325-3.35-.85-3.35V6.15h3.749v.125c-1.125.2-1.975 1.175-2.575 2.725-.6 1.525-3.4 9.5-3.4 9.5zm-38.225 0v-.125c1.426 0 1.55-.925 1.575-2.75V3.876C1.65 2.05 1.526 1.125.1 1.125V1h8.35c5.375 0 8.075 3.875 8.075 8.75s-2.675 8.751-8.075 8.751zM3.851 3.876v11.749c0 1.825.15 2.75 1.575 2.75h1.925c3.225 0 6.674-1.925 6.674-8.626 0-6.674-3.45-8.625-6.674-8.625H5.426c-1.425.001-1.575.926-1.575 2.752zm106.4 8.9h0zm-65.075 0h0zm-26.626 0h0zm5.926-8.5l.975-2.775h1.4L24.6 4.275z" fill="#cba837" stroke="#cba837" stroke-miterlimit="10" stroke-width=".2"></path>
    </symbol>

    <symbol id="html5" viewBox="0 0 21 24">
        <g fill-rule="nonzero" fill="none">
            <path fill="#FFF" d="M3.4759 4.0276h14.0138v15.9448H3.4759z"/>
            <path d="M.0185.793l1.5546 19.8882a.7356.7356 0 00.511.6438l8.1804 2.5936c.1447.0458.3.0458.4446 0l8.1803-2.5936a.7356.7356 0 00.5111-.6438L20.9551.7929C20.9885.3654 20.6506 0 20.2217 0H.752C.3231 0-.0148.3654.0185.793zm16.95 6.1706H6.8368l.3057 2.8196h9.6055l-.6284 8.0382-5.6329 1.7859-5.6328-1.7859-.3283-4.1995h2.9566v2.06l3.0835.8275 3.0652-.8276.2378-3.2829H4.4301l-.6267-8.0172h13.3668l-.2018 2.5819z" fill="#FC490B"/>
        </g>
    </symbol>
    <symbol id="css3" viewBox="0 0 21 24">
        <g fill-rule="nonzero" fill="none">
            <path fill="#2196F3" d="M0 0l1.9125 21.6L10.5 24l8.5845-2.3985L21 0z"/>
            <path fill="#FAFAFA" d="M16.911 7.0635l-.2415 2.7135-.729 8.1345L10.5 19.416l-.0045.0015-5.4375-1.506-.3795-4.254h2.664l.198 2.2065 2.9565.798.0015-.0015 2.961-.798.4035-3.6765-9.312.0255-.264-2.514 9.7995-.1155.198-2.691-10.26.0285L3.852 4.416h13.296z"/>
        </g>
    </symbol>
    <symbol id="scss" viewBox="0 0 21 24">
        <path d="M19.9938 2.977C19.2782.1706 14.6245-.7521 10.2201.8126c-2.6212.9313-5.4588 2.3928-7.4991 4.3013C.295 7.3828-.0918 9.3578.0677 10.183.6302 13.0948 4.62 14.9982 6.26 16.4103v.0085c-.4836.2381-4.0233 2.0295-4.8518 3.8609-.874 1.932.1392 3.3185.81 3.505 2.0783.5784 4.211-.4618 5.3572-2.1713 1.106-1.6499 1.014-3.7804.5333-4.84.663-.175 1.4361-.2534 2.4185-.1387 2.772.3238 3.316 2.0547 3.212 2.779-.104.7245-.6854 1.1228-.8798 1.243-.1944.1202-.2538.1618-.2374.2512.0236.13.1136.1252.2793.0971.2282-.0385 1.4557-.5892 1.508-1.9264.067-1.6977-1.56-3.5968-4.4407-3.5471-1.1864.0205-1.9324.1333-2.4712.3338a5.5283 5.5283 0 00-.1223-.1352C5.5942 13.83 2.302 12.4859 2.4416 9.9316c.0508-.9286.3736-3.374 6.326-6.34 4.8762-2.4298 8.7798-1.7612 9.4544-.2794.9636 2.117-2.0862 6.0518-7.15 6.6194-1.9294.2162-2.9453-.5314-3.198-.81-.266-.293-.3057-.3063-.405-.2513-.1618.0896-.0592.3485 0 .5028.1512.3934.7716 1.0912 1.8294 1.4384.9305.3053 3.1957.473 5.9351-.5865 3.0682-1.187 5.464-4.4884 4.7603-7.248zM6.9408 17.28c.2298.8505.2047 1.6435-.0329 2.3618a3.889 3.889 0 01-.1893.4675c-.1831.38-.429.7357-.7298 1.064-.9183 1.0016-2.201 1.3804-2.7511 1.0613-.594-.3444-.2965-1.7566.768-2.882 1.1453-1.2105 2.793-1.989 2.793-1.989l-.0024-.005a24.012 24.012 0 00.1445-.0786z" fill="#C69" fill-rule="nonzero"/>
    </symbol>
    <symbol id="js" viewBox="0 0 24 24">
        <g fill-rule="nonzero" fill="none">
            <path fill="#F7DF1E" d="M0 0h24v24H0z"/>
            <path d="M16.1219 18.7501c.4834.7893 1.1124 1.3695 2.2248 1.3695.9344 0 1.5314-.467 1.5314-1.1124 0-.7733-.6133-1.0472-1.642-1.4971l-.5637-.242c-1.6274-.6932-2.7086-1.5618-2.7086-3.398 0-1.6914 1.2888-2.979 3.3029-2.979 1.4339 0 2.4647.499 3.2076 1.8057l-1.7562 1.1276c-.3867-.6934-.8038-.9665-1.4514-.9665-.6606 0-1.0793.419-1.0793.9665 0 .6766.419.9505 1.3867 1.3695l.5638.2415c1.9162.8217 2.9981 1.6595 2.9981 3.5429 0 2.0305-1.595 3.1428-3.7371 3.1428-2.0945 0-3.4477-.998-4.1098-2.3062L16.122 18.75zm-7.9669.1954c.3543.6286.6766 1.16 1.4515 1.16.741 0 1.2084-.2899 1.2084-1.4171v-7.6686H13.07v7.699c0 2.3353-1.3691 3.3982-3.3676 3.3982-1.8057 0-2.8515-.9345-3.3833-2.06l1.8358-1.1115z" fill="#000"/>
        </g>
    </symbol>
    <symbol id="php" viewBox="0 0 25 24">
        <g fill-rule="nonzero" fill="none">
            <path d="M24 12c0 .7259-.0646 1.4366-.188 2.1267C22.8082 19.7397 17.9015 24 12 24c-4.4464 0-8.328-2.4181-10.4008-6.0113a11.9065 11.9065 0 01-1.176-2.8197C.147 14.1595 0 13.0966 0 12 0 5.3726 5.3726 0 12 0c5.47 0 10.0849 3.6598 11.5303 8.6645A12.0108 12.0108 0 0124 12z" fill="#8F9ED1"/>
            <g fill="#F2F2F2">
                <path d="M6.1019 8.355H1.6824L.4232 15.169c.2723.9977.67 1.9435 1.176 2.8197h.41l.4878-2.639h2.4284c2.9569 0 3.7518-2.6546 3.9424-3.9585.191-1.3034-.7626-3.0362-2.766-3.0362zm.6411 3.256c-.1082.7392-.6544 2.2443-2.3304 2.2443H2.7732l.7328-3.9658h1.6687c1.6266 0 1.6766.9825 1.5683 1.7216zM23.5303 8.6645c-.3757-.194-.8234-.3096-1.3406-.3096h-4.4194l-1.7804 9.6339h2.107l.4879-2.639h2.4284c1.3151 0 2.2026-.5251 2.7986-1.223A12.0644 12.0644 0 0024 12c0-1.1574-.164-2.2766-.4697-3.3355zm-.6995 2.9466c-.1082.7391-.6543 2.2442-2.331 2.2442H18.861l.7328-3.9658h1.6687c1.6267 0 1.6766.9825 1.5683 1.7216zM14.4955 8.3868h-2.5592l.4804-2.5992h-2.0984L8.5378 15.421h2.0984l1.024-5.54h1.341c.8902 0 1.4943.1908 1.3671 1.0175-.1272.8266-.8584 4.483-.8584 4.483H15.64s.8266-4.0697.9538-5.2143c.1272-1.1446-.922-1.7805-2.0984-1.7805z"/>
            </g>
        </g>
    </symbol>
    <symbol id="react" viewBox="0 0 25 25">
        <g fill-rule="nonzero" fill="none">
            <path d="M24 12c0 3.9536-1.9122 7.4606-4.8617 9.647a11.9493 11.9493 0 01-4.1854 1.9866A11.9994 11.9994 0 0112 24a12.0039 12.0039 0 01-2.9535-.3664 11.9417 11.9417 0 01-4.1853-1.9871C1.9117 19.4601 0 15.9532 0 12 0 5.3726 5.3726 0 12 0s12 5.3726 12 12z" fill="#5ADAFD"/>
            <g transform="translate(.3281 3.1406)" fill="#F2F2F2">
                <path d="M18.8224 15.6161a14.9606 14.9606 0 00-.2228-1.1642 18.528 18.528 0 00-.2831-1.0668c-.2821-.9492-.6539-1.9356-1.1045-2.9329-.1974-.4359-.41-.8738-.6367-1.3112a28.4883 28.4883 0 00-.6324-1.155 27.897 27.897 0 00-.6842-1.125 26.9134 26.9134 0 00-.817-1.2063c-.6377-.889-1.3062-1.7045-1.9876-2.4236a17.6955 17.6955 0 00-.7822-.7778 14.5854 14.5854 0 00-.8973-.7758C8.8208.1263 7.0718-.3395 5.8487.3663c-1.223.7063-1.6942 2.4539-1.3278 4.922.0558.3776.1308.7665.2234 1.1642.0803.3493.1748.7054.2826 1.0668.2821.9492.6538 1.9362 1.105 2.9329.1969.436.4094.8733.6362 1.3107.1998.386.411.7714.6323 1.1554.2214.384.4497.7592.6843 1.125.2654.4154.5382.818.817 1.2069.6377.889 1.3062 1.704 1.9876 2.423.259.2738.5206.5338.7826.7783.2983.2791.598.5377.8968.7753.7186.5706 1.4092.9943 2.0562 1.2662a11.949 11.949 0 004.1853-1.9867c.1723-.7943.1787-1.7676.0122-2.8902zm-1.1 2.712c-.1426.6162-.4047 1.0384-.7793 1.2544-.3742.2165-.8709.2322-1.4758.048-.6554-.2003-1.4204-.6382-2.2129-1.2676a13.8929 13.8929 0 01-.8003-.6892 16.899 16.899 0 01-.7827-.7773c-.4457-.4716-.8865-.988-1.3166-1.5418a24.829 24.829 0 01-.8454-1.1574 27.2534 27.2534 0 01-1.154-1.8304 27.1883 27.1883 0 01-1.008-1.9146 24.3684 24.3684 0 01-.5794-1.3107c-.265-.6494-.4917-1.2896-.6773-1.9112a16.6816 16.6816 0 01-.2812-1.0662 13.5706 13.5706 0 01-.1974-1.0379c-.1489-1.0006-.1454-1.8823.0088-2.5499.1426-.6161.405-1.0383.7793-1.2543.2022-.1166.4398-.1754.7106-.1754.2312 0 .4869.0426.765.1278.6555.1999 1.4205.6382 2.213 1.2672.2664.2116.5338.4418.8003.6901.262.2424.5231.502.7822.7763.4462.4717.887.988 1.3176 1.5424.287.3698.5696.7563.8454 1.1574a27.5594 27.5594 0 011.1534 1.8299 27.1883 27.1883 0 011.008 1.9146c.2096.4398.4031.8777.5794 1.3112.265.6494.4918 1.2891.6774 1.9106.1078.3625.2023.718.2817 1.0663.0808.3546.147.7014.1969 1.0379.149 1.0006.1455 1.8822-.0088 2.5498z"/>
                <path d="M19.7192 6.842a15.0653 15.0653 0 00-1.1201-.3895 18.1344 18.1344 0 00-1.0654-.2884c-.963-.2302-2.0032-.4017-3.092-.5094a26.641 26.641 0 00-1.4528-.1044 28.5417 28.5417 0 00-2.6346 0c-.4922.022-.9776.0574-1.4532.1044-1.0888.1077-2.1286.2792-3.0916.5094a18.191 18.191 0 00-1.0653.2884c-.3909.119-.765.2494-1.1202.3894C1.3039 7.758.0255 9.0401.0255 10.4522c0 1.412 1.2784 2.6944 3.5985 3.6108.3552.14.7289.2698 1.1197.3894.3428.1043.6984.2008 1.0653.288.963.2306 2.0033.4016 3.0926.5098.4756.047.961.0818 1.4532.1044.434.02.8738.0298 1.317.0298.4433 0 .8827-.0098 1.3167-.0298a27.6819 27.6819 0 001.4532-.1044c1.0888-.1077 2.1296-.2792 3.0925-.5098a17.7945 17.7945 0 001.0654-.2885c.3904-.119.7646-.2488 1.1196-.389 2.3207-.9163 3.5986-2.1986 3.5986-3.6107 0-1.412-1.278-2.6944-3.5986-3.6103zm1.7985 4.912c-.5005.4678-1.2626.911-2.2036 1.2828-.3168.1249-.65.2415-.9977.3483a16.662 16.662 0 01-1.0638.289c-.6314.1503-1.299.2737-1.994.3693-.4634.0641-.939.1156-1.4243.1533a27.1442 27.1442 0 01-2.1625.0848 27.392 27.392 0 01-2.1624-.0843 24.2933 24.2933 0 01-1.4248-.1538c-.695-.0955-1.3626-.219-1.994-.3693a16.662 16.662 0 01-1.0638-.289 13.6634 13.6634 0 01-.9978-.3482c-.9408-.3718-1.703-.815-2.2035-1.2828-.4624-.4315-.697-.8694-.697-1.3019 0-.4324.2346-.8703.697-1.3018.5005-.4678 1.2626-.911 2.2035-1.2828.317-.1249.65-.2415.9978-.3482a16.6619 16.6619 0 011.0638-.289c.6314-.1504 1.299-.2738 1.994-.3694a24.2933 24.2933 0 011.4248-.1537 27.3921 27.3921 0 012.1624-.0843c.7352 0 1.4586.0284 2.1625.0848.4854.0377.961.0891 1.4243.1533.695.0955 1.3626.219 1.994.3693.3673.0872.7224.1837 1.0638.289.3478.1068.6808.2234.9977.3482.941.3718 1.703.815 2.2036 1.2828.4624.4316.697.8694.697 1.3019 0 .4324-.2346.8703-.697 1.3017z"/>
                <path d="M17.4945.3663c-1.223-.7058-2.972-.24-4.9258 1.3112a14.7335 14.7335 0 00-.8968.7758c-.262.2445-.5236.5045-.7827.7783-.6813.719-1.3499 1.534-1.988 2.423a27.282 27.282 0 00-.8165 1.2064 27.897 27.897 0 00-.6843 1.125c-.2214.384-.4324.7695-.6323 1.1555a27.1707 27.1707 0 00-.6362 1.3106c-.4512.9973-.8229 1.9837-1.105 2.933-.1078.3619-.2023.718-.2832 1.0672-.092.3977-.167.7861-.2228 1.1637-.1665 1.1222-.1602 2.0954.0122 2.8898a11.9421 11.9421 0 004.1854 1.9872c.647-.2719 1.3376-.6956 2.0561-1.2662a14.765 14.765 0 00.8974-.7753c.262-.2445.523-.504.7822-.7778.6808-.719 1.3498-1.5346 1.9876-2.4236.2786-.3889.5515-.7915.817-1.2068a27.897 27.897 0 00.6842-1.125c.2218-.3836.4325-.769.6323-1.155.2268-.4374.4394-.8753.6368-1.3112.4506-.9968.8224-1.9837 1.1044-2.9329.1073-.3614.2018-.7175.2827-1.0668.0925-.3977.167-.7866.2233-1.1642.3662-2.468-.1049-4.2156-1.328-4.9219zm-.2419 6.864c-.1856.6216-.4124 1.2612-.6774 1.9107a24.5852 24.5852 0 01-.5794 1.3112 27.1883 27.1883 0 01-1.008 1.9146 27.5788 27.5788 0 01-1.1534 1.8299c-.2763.4016-.5589.788-.8459 1.1578-.43.554-.8708 1.0702-1.317 1.5419a16.673 16.673 0 01-.7822.7768c-.2665.2478-.534.478-.8004.6896-.7925.6294-1.5576 1.0673-2.2129 1.2676-.6048.1842-1.1015.1685-1.4757-.048-.3742-.216-.6368-.6382-.7793-1.2544-.1543-.6676-.1577-1.5492-.0088-2.5498.05-.3365.116-.6833.1969-1.0379.0793-.3482.1738-.7038.2816-1.0663.1856-.6215.4124-1.2617.6774-1.9111.1763-.4335.3698-.8714.5794-1.3107a27.1883 27.1883 0 011.008-1.9146 27.2535 27.2535 0 011.154-1.8304c.2758-.4012.5578-.7876.8449-1.1569.4305-.5544.8713-1.0706 1.317-1.5423.2596-.2748.5212-.5344.7827-.7769.267-.2478.5338-.478.8003-.6896.7925-.6289 1.5576-1.0672 2.2129-1.2671.2782-.0852.5339-.1278.765-.1278.2709 0 .509.0587.7107.1753.3747.216.6368.6382.7793 1.2544.1542.6676.1577 1.5492.0088 2.5499-.05.3364-.116.6832-.1974 1.0378a16.658 16.658 0 01-.281 1.0663z"/>
                <circle cx="11.6719" cy="10.4522" r="2.1889"/>
            </g>
        </g>
    </symbol>
    <symbol id="vuejs" viewBox="0 0 24 21">
        <g fill-rule="nonzero" fill="none">
            <path d="M14.6804.1812l-2.7373 4.7412L9.2058.1812H.09l11.853 20.5302L23.7961.1812z" fill="#41B883"/>
            <path d="M14.6804.1812l-2.7373 4.7412L9.2058.1812H4.8313l7.1118 12.318L19.055.1811z" fill="#34495E"/>
        </g>
    </symbol>
    <symbol id="cpp" viewBox="0 0 24 24">
        <g fill-rule="nonzero" fill="none">
            <path fill="#FFF" d="M2.377 7.4377h19.246v9.278H2.377z"/>
            <path d="M23.199 0H.7668A.7668.7668 0 000 .7668V23.199c0 .4234.3433.7667.7668.7667H23.199a.7668.7668 0 00.7667-.7667V.7668A.7668.7668 0 0023.199 0zM9.357 14.8208c-.727.6361-1.6556.9865-2.6148.9865-2.1553 0-3.9087-1.7176-3.9087-3.8288 0-2.1064 1.7534-3.82 3.9087-3.82.9605 0 1.886.3474 2.606.9781.297.2601.3269.7118.0667 1.0088a.7148.7148 0 01-1.0088.0666 2.5236 2.5236 0 00-1.664-.6237c-1.3669 0-2.479 1.0721-2.479 2.3902 0 1.3227 1.1121 2.3989 2.479 2.3989.6129 0 1.2071-.2248 1.6733-.6327a.715.715 0 01.9416 1.076zm4.9012-2.123h-1.4407v1.4407c0 .3948-.32.7149-.715.7149a.7149.7149 0 01-.7148-.7149v-1.4407H9.947a.715.715 0 110-1.4298h1.4407V9.8273c0-.3948.32-.7148.7149-.7148s.715.32.715.7148v1.4407h1.4406a.715.715 0 110 1.4298zm6.1591 0h-1.4407v1.4407a.715.715 0 01-1.4299 0v-1.4407h-1.4406a.715.715 0 110-1.4298h1.4407V9.8273a.715.715 0 011.4299 0v1.4407h1.4406a.715.715 0 110 1.4298z" fill="#174582"/>
        </g>
    </symbol>
    <symbol id="qt" viewBox="0 0 33 24">
        <g fill-rule="nonzero" fill="none">
            <path d="M4.4956 0H32.708v19.4542c-1.515 1.52-3.035 3.035-4.5586 4.5458H0V4.4878C1.4924 2.9862 2.9975 1.4959 4.4956 0z" fill="#41CD52"/>
            <path d="M8.6634 5.05c1.0711-.7088 2.3957-.8879 3.6552-.8765 1.1993.0148 2.458.225 3.452.9408.7221.5076 1.1915 1.2914 1.5044 2.102.5062 1.331.655 2.7681.6719 4.1826.0021 1.4245-.0623 2.88-.5338 4.2372-.3158.9232-.9168 1.743-1.7097 2.3122.5706.9246 1.1525 1.8421 1.7231 2.7667-.7171.3307-1.4322.6634-2.15.9926-.611-1.0081-1.2192-2.0184-1.8323-3.0251-.829.136-1.6771.1253-2.5104.0333-.9982-.1197-2.0156-.4241-2.7858-1.096-.5919-.5125-.9636-1.2297-1.2177-1.959-.4163-1.2332-.5282-2.5458-.5473-3.84-.0099-1.3989.0793-2.8197.5012-4.162.3264-1.0096.8666-2.017 1.7792-2.6089zM20.8234 5.0046c.7504-.0007 1.5008-.0007 2.2513 0 .0021.9926-.0007 1.9844.0014 2.977.9593.0014 1.9186 0 2.8779.0007-.0163.6442-.034 1.2885-.0524 1.9327-.9586.0022-1.9165-.0007-2.875.0015.002 1.6269-.005 3.2538.0035 4.8807.0184.4453.0085.9154.2046 1.3267.143.3172.5281.3986.8418.4092.5911-.0021 1.1816-.0368 1.7727-.0474.0361.5918.0708 1.1844.1048 1.7762-1.176.1976-2.41.434-3.578.0645-.4921-.1459-.9509-.4722-1.1505-.9586-.3575-.8276-.3866-1.7487-.4021-2.6372-.0015-1.605 0-3.2092-.0007-4.8141-.5232-.0015-1.0464.0007-1.5696-.0015a439.3866 439.3866 0 010-1.932c.5232-.0021 1.0457.0007 1.5688-.0014.0022-.9926-.0007-1.9844.0015-2.977z" fill="#FFF"/>
            <path d="M11.3635 6.2088c.7285-.0948 1.4931-.0693 2.1827.206.5586.221 1.033.6535 1.2835 1.2015.3845.8304.5317 1.7472.606 2.6527.0808 1.205.0694 2.4213-.097 3.6191-.1168.713-.2831 1.4641-.766 2.0262-.4899.5643-1.2453.8064-1.9702.863-.7646.056-1.571 0-2.2613-.3617-.4028-.2145-.7447-.5508-.9444-.9629-.2421-.4934-.3752-1.0322-.4687-1.5716-.2817-1.7105-.3497-3.4804.0354-5.181.1586-.6413.3894-1.2997.858-1.7833.4079-.4141.9757-.628 1.542-.708z" fill="#41CD52"/>
        </g>
    </symbol>

    <symbol id="linkedin" viewBox="0 0 48 48">
        <path d="M24,0A24,24,0,1,0,48,24,24,24,0,0,0,24,0ZM17.026,36.281H11.181V18.7h5.845ZM14.1,16.295h-.038a3.046,3.046,0,1,1,.077-6.076,3.048,3.048,0,1,1-.039,6.076Zm24,19.986H32.258V26.874c0-2.364-.846-3.977-2.961-3.977a3.2,3.2,0,0,0-3,2.138,4,4,0,0,0-.192,1.426v9.82H20.261s.077-15.935,0-17.585h5.845v2.49a5.8,5.8,0,0,1,5.268-2.9c3.846,0,6.729,2.513,6.729,7.915Zm0,0"/>
    </symbol>
    <symbol id="facebook" viewBox="0 0 48 48">
        <path d="M42,0H6A6.006,6.006,0,0,0,0,6V42a6.006,6.006,0,0,0,6,6H24V31.5H18V24h6V18a9,9,0,0,1,9-9h6v7.5H36c-1.656,0-3-.156-3,1.5v6h7.5l-3,7.5H33V48h9a6.006,6.006,0,0,0,6-6V6A6.006,6.006,0,0,0,42,0Z"/>
    </symbol>
    <symbol id="github" viewBox="0 0 48 46">
        <path d="M24,.5A23.792,23.792,0,0,0,0,24.084,23.623,23.623,0,0,0,16.41,46.46c1.2.222,1.64-.508,1.64-1.134,0-.56-.02-2.044-.03-4.01-6.676,1.422-8.084-3.164-8.084-3.164a6.287,6.287,0,0,0-2.67-3.45c-2.174-1.462.168-1.432.168-1.432A5.021,5.021,0,0,1,11.11,35.7c2.14,3.606,5.618,2.564,6.99,1.962a4.993,4.993,0,0,1,1.52-3.154c-5.33-.59-10.932-2.618-10.932-11.654a9.01,9.01,0,0,1,2.47-6.328,8.251,8.251,0,0,1,.21-6.242s2.01-.632,6.6,2.418a23.011,23.011,0,0,1,12,0c4.56-3.05,6.57-2.418,6.57-2.418a8.479,8.479,0,0,1,.24,6.242,9.047,9.047,0,0,1,2.46,6.328c0,9.06-5.61,11.054-10.95,11.634a5.6,5.6,0,0,1,1.62,4.364c0,3.156-.03,5.692-.03,6.458,0,.618.42,1.356,1.65,1.12A23.551,23.551,0,0,0,48,24.084,23.8,23.8,0,0,0,24,.5Z"/>
    </symbol>
    <symbol id="croix" viewBox="0 0 24.193 24.193">
        <line x1="32.214" transform="translate(0.707 0.707) rotate(45)" stroke-width="1"/>
        <line x1="32.214" transform="translate(23.486 0.707) rotate(135)" stroke-width="1"/>
    </symbol>
</svg>