<svg xmlns="http://www.w3.org/2000/svg">
    <symbol id="nom" viewBox="0 0 235.307 29.065">
        <path d="M25.913 22.609a9.725 9.725 0 01-6.4-2.314 9.238 9.238 0 01-3.109-6.131A8.857 8.857 0 0118.372 7.5a10 10 0 016.9-3.5c.34-.03.683-.045 1.02-.045a10.018 10.018 0 016.5 2.253 8.489 8.489 0 012.981 6.213 9.5 9.5 0 01-2.285 7.01 9.813 9.813 0 01-6.555 3.13 10.88 10.88 0 01-1.02.048zm-.091-18.5c-.187 0-.375.008-.558.024-3.9.358-7.6 3.84-7.15 9.8.425 5.6 4.42 8.531 8.147 8.531a7.2 7.2 0 00.641-.029c3.844-.328 7.58-4.075 7.177-9.776-.374-5.356-4.491-8.554-8.253-8.554zM62.37 22.382h-5.1v-.131a4.684 4.684 0 003.2-3.068c.9-2.248 5.826-14.875 5.876-15h.13c.041.108 4.929 12.96 5.591 14.586l.077.183c.681 1.623 1.386 3.3 2.964 3.3v.13h-5.171v-.131h.008c.629 0 1.017-.138 1.221-.436.262-.381.209-1.037-.163-2.007-.165-.475-.573-1.528-1.09-2.862-.219-.566-.457-1.178-.7-1.818h-7.02a152.234 152.234 0 01-1.274 3.3 3.507 3.507 0 00-.054 3.135 1.707 1.707 0 001.511.686v.131zM65.699 6.13c-.8 2.078-2.321 6-3.459 8.892h6.916c-1.351-3.501-3.102-8.017-3.457-8.892zM43.261 22.382h-4.732v-.131c1.528 0 1.638-1.081 1.638-2.86V7.171c0-1.78-.11-2.86-1.638-2.86V4.18h4.732v.131c-1.449 0-1.612.872-1.638 2.86v6.057h11.414V7.171c-.024-1.989-.191-2.861-1.638-2.861v-.13h4.706v.131c-1.448 0-1.611.872-1.638 2.86V19.39c.027 1.989.191 2.86 1.638 2.86v.13h-4.706v-.131c1.448 0 1.611-.872 1.638-2.86v-6.031H41.623v6.032c.026 1.989.189 2.86 1.638 2.86v.131zm39.182 0H76.15v-.131h.005a2.633 2.633 0 002.26-1.045 5.7 5.7 0 00.8-3.347V6.261c-1.05-1.312-1.994-1.95-2.886-1.95V4.18h3.328l12.222 15.841-.491 1.8c-1.256-1.6-4.864-6.22-7.764-9.934l-.021-.027c-2.159-2.764-4.024-5.152-4.255-5.439v11.44c0 2.916 1.041 4.394 3.094 4.394v.13zm-71.578 0H6.029v-.131c1.46 0 1.612-.872 1.612-2.86v-4.915c-1.536-2.726-2.198-3.805-2.728-4.672-.28-.453-.52-.844-.835-1.383l-.049-.085C3.095 6.731 1.684 4.31.1 4.31v-.13h4.785v.131H4.88a.588.588 0 00-.543.271c-.294.483.011 1.454.288 1.99.548 1.072 4.071 6.994 4.55 7.774a741.675 741.675 0 001.774-4.015v-.011c.382-.87.684-1.557.794-1.8.7-1.577.829-2.844.361-3.565a1.577 1.577 0 00-1.421-.645v-.13h5.278v.131c-1.8.437-2.88 1.443-3.848 3.588-.341.794-.894 2.066-1.48 3.414v.01c-.487 1.119-.99 2.277-1.4 3.232v4.836c0 1.944.162 2.86 1.638 2.86v.13zm81.07-2.561h0V8.73a5.764 5.764 0 00-.8-3.37 2.634 2.634 0 00-2.265-1.05v-.13h6.292v.131c-2.054 0-3.094 1.488-3.094 4.42v10.62z" fill="#cba837" stroke="#cba837" stroke-width=".2"></path>
        <path d="M190.1 22.653h0a10.932 10.932 0 01-6.858-2.3 8.821 8.821 0 01-3.31-6.3 8.971 8.971 0 012.259-7.01 10.277 10.277 0 016.763-3.1c.334-.027.672-.04 1.006-.04a11.084 11.084 0 016.831 2.233 8.353 8.353 0 013.259 6.078 9.527 9.527 0 01-2.242 7.238 10.021 10.021 0 01-6.728 3.162 12.29 12.29 0 01-.98.039zm-.872-18.589c-.1 0-.2 0-.3.013-1.449.15-2.7 1.234-3.511 3.055a13.073 13.073 0 00-.858 6.565 13.244 13.244 0 002.2 6.237 5.234 5.234 0 004.066 2.56c.086 0 .174 0 .26-.01 1.461-.164 2.654-1.21 3.452-3.026a14.554 14.554 0 00.917-6.672c-.34-4.811-3.133-8.723-6.226-8.722zM96.627 22.64a13.011 13.011 0 01-3.4-.494 4.46 4.46 0 00-1.096-.191.985.985 0 00-.891.409l.726-2.662a5.186 5.186 0 004.583 2.808 2.7 2.7 0 003.042-2.7c0-2.326-1.917-3.478-3.947-4.7a24.417 24.417 0 01-2.061-1.335l1.484-5.443a10.206 10.206 0 003.415 2.728c2.4 1.451 4.879 2.951 4.879 6.042 0 3.364-2.644 5.538-6.734 5.538zm110.526-.259h-6.552v-.13c1.9 0 3.224-2.021 3.224-4.914V6.754c-.806-1.137-1.88-2.444-3.042-2.444v-.135h6.058l9.776 12.74v-7.7c0-2.893-1.326-4.914-3.224-4.914v-.126h6.552v.13c-1.884 0-3.2 2.021-3.2 4.914v13.156h-.754c-.652-.77-11.677-14.914-12.038-15.444v10.4c0 2.893 1.315 4.914 3.2 4.914v.13zm-44.72 0h-6.552v-.13c1.9 0 3.224-2.021 3.224-4.914V6.026a3.335 3.335 0 00-2.522-1.716v-.135h6.058l5.59 10.738 4.42-10.738h5.668v.13c-1.528.006-1.638 1.086-1.638 2.865v12.22c0 1.944.162 2.86 1.638 2.86v.125h-7.306v-.13c1.448 0 1.611-.872 1.638-2.86V4.466l-5.876 14.248h-.676c-.062-.115-6.4-11.859-6.864-12.532v11.154c0 2.893 1.315 4.914 3.2 4.914v.13zm-20.306 0h-5.536v-.13c1.727-.324 2.93-1.567 3.9-4.03l5.484-14.046h.572c.035.089 5.081 12.86 5.772 14.56l.09.214c.68 1.62 1.384 3.3 2.952 3.3v.126h-7.7v-.13h.009c.557 0 .875-.1 1.029-.324.22-.32.13-.919-.31-2.067-.195-.545-.628-1.687-1.13-3.01v-.005l-.532-1.4h-5.017c-.15.379-.28.713-.389.99v.006a45.52 45.52 0 01-.337.85c-.607 1.646-.6 3.483.019 4.369a1.309 1.309 0 001.126.6v.13zm2.106-13.417c-.34.866-.7 1.786-1.046 2.675v.007a481.988 481.988 0 01-1.448 3.687h4.94c-.5-1.311-1.034-2.7-1.46-3.812-.497-1.295-.888-2.319-.986-2.557zm-35.854 13.417h-5.539v-.13c1.727-.324 2.93-1.567 3.9-4.03l5.486-14.046h.572c.035.089 5.081 12.86 5.772 14.56l.09.214c.68 1.62 1.384 3.3 2.952 3.3v.126h-7.7v-.13h.009c.558 0 .875-.1 1.029-.324.22-.32.13-.919-.31-2.067-.195-.545-.628-1.687-1.13-3.01v-.005l-.532-1.4h-5.015l-.423 1.077v.009c-.155.4-.257.657-.3.76-.607 1.645-.6 3.483.018 4.369a1.309 1.309 0 001.126.6v.13zm2.106-13.417c-.339.862-.7 1.777-1.04 2.661a490.313 490.313 0 01-1.456 3.709h4.94c-.5-1.311-1.034-2.7-1.46-3.812-.496-1.296-.886-2.32-.984-2.558zm123.629 13.411h-12.87v-.13c1.477 0 1.638-.917 1.638-2.86V7.17c0-1.779-.11-2.859-1.638-2.859v-.136h12.038l.884 3.77h-.13c-.607-1.36-2.04-3.64-4.837-3.64h-.65c-1.447 0-1.611.871-1.638 2.859v6.09h.391a3.552 3.552 0 003.64-3.353h.13v6.812h-.13a3.2 3.2 0 00-1.08-2.359 3.765 3.765 0 00-2.56-1h-.391v6.032c.027 1.989.19 2.86 1.638 2.86h1.456c2.654 0 4.3-2.8 5.044-4.472h.131l-1.066 4.6zm-98.878 0h-12.845v-.13c1.477 0 1.638-.917 1.638-2.86V7.17c0-1.779-.11-2.859-1.638-2.859v-.136h7.306v.13c-1.448 0-1.611.872-1.638 2.859v12.22c.027 1.989.19 2.86 1.638 2.86h1.455c2.653 0 4.3-2.8 5.044-4.472h.13l-1.092 4.6zM102.113 9.9h-.131a6.584 6.584 0 00-1.357-4.217 4.479 4.479 0 00-3.504-1.633 2.633 2.633 0 00-.93.161l.069-.253c.266-.025.538-.038.809-.038a7.754 7.754 0 012.611.5c.272.088.551.178.847.259a2.1 2.1 0 00.554.089c.624 0 .9-.477.9-1.545h.131v6.676z" fill="#fff" stroke="#fff" stroke-width=".2"></path>
        <path fill="none" stroke="#fff" stroke-width=".3" d="M97.347.039l-7.905 28.986"></path>
    </symbol>
    <symbol id="dev" viewBox="0 0 182.833 68.829">
        <path d="M130.583 56.796h0c-.5-7.75 5.2-13.2 12.15-13.7 5.9-.45 10.4 2.8 11.35 8.5h-18.85a20.924 20.924 0 00-.2 5.05c.65 7.45 4.7 12 10.049 11.85a11.728 11.728 0 007.851-3.5v.55a12.42 12.42 0 01-7.851 3.15q-.524.033-1.046.033c-6.666 0-12.882-4.092-13.453-11.933zm4.7-5.4h14.55c-.4-4.1-2-8-7.1-8.1h-.083c-3.806-.001-6.474 3.434-7.367 8.099zm31.151 14.15c-1.9-2.3-5.6 2.7-5.6 2.7h-.1v-31.1c-.049-3.65-.3-5.45-3.15-5.45v-.25h8.1v.25c-.5.25-.85 2.5-.85 7.5v8.55a8 8 0 017.3-4.7c5.449 0 10.6 4.6 10.6 12.85 0 8.1-3.25 12.8-10.15 12.8a7.419 7.419 0 01-6.15-3.151zm-1.6-17.2v7.55a29.273 29.273 0 00.6 6.9c.85 2.9 3.15 5.45 5.9 5.45 5.15 0 7.3-4.25 7.3-12.35 0-7.75-2.65-12.451-7.5-12.451a7.388 7.388 0 00-6.3 4.9zm-48.35 19.9l-9.35-27.8-8.1 27.8h-.45s-8.15-23.75-9.55-28.05c-1.4-4.05-2.75-6.7-5.85-6.7v-.25h11.849v.25c-2.25 0-2.8.95-1.85 4.05 1.1 3.55 7.25 21.75 7.8 23.35l8-27.65h.6l9.2 28.2c2.15-7.3 5.3-18 5.6-19.35.9-3.8.6-8.6-2.8-8.6v-.25h10.7v.25c-3.2.6-5.9 3.3-7.3 7.75-1.45 4.6-8 27-8 27zm14.1-11.45h0zm-35.257-33.4v-.125c1.425 0 1.575-.9 1.575-2.725V9.025c0-1.85-.15-2.75-1.575-2.75V6.15h4.075v.125c-.175.076-.326.675-.4 1.925a3.923 3.923 0 013.6-2.275c2.725 0 5.5 1.976 5.5 6.4s-2.775 6.425-5.5 6.425a3.946 3.946 0 01-3.625-2.375v4.175c0 1.825.15 2.725 1.575 2.725v.125zm3.675-14.9c-.025.45-.025.95-.025 1.526v6.05a3.687 3.687 0 003.15 2.5c2.425 0 3.925-2.125 3.925-6.251 0-4.1-1.5-6.224-3.925-6.224A3.673 3.673 0 0099 8.5zm-18.2 14.9v-.125c1.425 0 1.575-.9 1.575-2.725V9.025c0-1.85-.15-2.75-1.575-2.75V6.15h4.075v.125c-.175.076-.325.675-.4 1.925a3.923 3.923 0 013.6-2.275c2.725 0 5.5 1.976 5.5 6.4s-2.775 6.425-5.5 6.425a3.946 3.946 0 01-3.625-2.375v4.175c0 1.825.15 2.725 1.575 2.725v.125zm3.675-14.9c-.025.45-.025.95-.025 1.526v6.05a3.688 3.688 0 003.15 2.5c2.425 0 3.926-2.125 3.926-6.251 0-4.1-1.5-6.224-3.926-6.224A3.673 3.673 0 0084.475 8.5zm-18.2 4.425a6.394 6.394 0 016.1-7 6.037 6.037 0 016.75 5.85c.125 3.475-2.075 6.625-5.625 6.951q-.367.035-.729.035a6.215 6.215 0 01-6.497-5.832zm6.1-6.9c-2.725.225-4.2 2.925-3.925 6.75.3 3.926 2.325 6.2 5.05 5.85 2.325-.325 3.649-3.4 3.424-6.75-.193-3-1.862-5.86-4.3-5.86-.085.004-.167.007-.25.014zm53.2 8.726V9.025c0-1.85-.15-2.75-1.575-2.75V6.15h4.05v.125c-.225.125-.4 1.25-.4 3.75v4.85c0 1.7.275 3.7 2.7 3.7a3.8 3.8 0 003.2-2.426c0-.425.025-.949.025-1.525v-5.6c-.025-1.85-.15-2.75-1.575-2.75V6.15h4.05v.125c-.25.125-.425 1.25-.425 3.75v5.625c.024 1.825.149 2.725 1.575 2.725v.125h-4.05v-.125c.175-.076.3-.675.374-1.9a4.039 4.039 0 01-3.65 2.274c-2.475.001-4.3-1.024-4.3-3.999zm-15.327-1.972h0a6.354 6.354 0 016.075-6.85A4.987 4.987 0 01122 10.176h-9.426a10.527 10.527 0 00-.1 2.524c.325 3.725 2.35 6 5.026 5.925a5.858 5.858 0 003.925-1.75v.275a6.21 6.21 0 01-3.925 1.575q-.262.017-.523.017c-3.333 0-6.442-2.046-6.727-5.967zm2.35-2.7h7.276c-.2-2.049-1-4-3.55-4.05h-.04c-1.904 0-3.239 1.712-3.686 4.05zm-67.424 2.7h0a6.353 6.353 0 016.075-6.85 4.987 4.987 0 015.674 4.251h-9.424a10.435 10.435 0 00-.1 2.524c.325 3.725 2.35 6 5.025 5.925a5.854 5.854 0 003.925-1.75v.275a6.21 6.21 0 01-3.925 1.575q-.262.017-.523.017c-3.335 0-6.442-2.046-6.727-5.967zm2.35-2.7h7.275c-.2-2.049-1-4-3.55-4.05h-.04c-1.904 0-3.238 1.712-3.685 4.05zm-28.976 2.7h0a6.354 6.354 0 016.075-6.85 4.987 4.987 0 015.675 4.251h-9.424a10.48 10.48 0 00-.1 2.524c.326 3.725 2.351 6 5.026 5.925a5.856 5.856 0 003.925-1.75v.275a6.21 6.21 0 01-3.925 1.575q-.262.017-.523.017c-3.335 0-6.443-2.046-6.729-5.967zm2.35-2.7h7.276c-.2-2.049-1-4-3.551-4.05h-.04c-1.903 0-3.238 1.712-3.685 4.05zm118.8 8.426v-.125c1.426 0 1.575-.925 1.575-2.75v-6.6c0-1.85-.149-2.75-1.575-2.75V6.15h4.05v.125c-.225.125-.4 1.15-.425 3.451.626-2.275 2.6-3.7 3.551-3.8 1-.125 1.775.35 1.75 1.15a.931.931 0 01-1.475.75c-.625-.4-.625-1.2-1.55-.924-.875.249-1.9 1.724-2.25 3.1l-.025 5.625c.025 1.825.15 2.75 1.575 2.75v.125zm-80.9 0v-.125c1.426 0 1.575-.925 1.575-2.75V2.95c0-1.825-.149-2.725-1.575-2.725V.1h4.075v.125c-.25.125-.425 1.25-.425 3.75v11.65c0 1.825.15 2.75 1.575 2.75v.125zm-20.475 0S34.4 9.85 33.85 8.625c-.5-1.1-.95-2.35-2.05-2.35V6.15h4.275v.125c-.875 0-.924.425-.4 1.675.5 1.225 3.425 7.726 3.625 8.176.875-2.5 2.174-6.125 2.325-6.5.45-1.274.325-3.35-.85-3.35V6.15h3.749v.125c-1.125.2-1.975 1.175-2.575 2.725-.6 1.525-3.4 9.5-3.4 9.5zm-38.225 0v-.125c1.426 0 1.55-.925 1.575-2.75V3.876C1.65 2.05 1.526 1.125.1 1.125V1h8.35c5.375 0 8.075 3.875 8.075 8.75s-2.675 8.751-8.075 8.751zM3.851 3.876v11.749c0 1.825.15 2.75 1.575 2.75h1.925c3.225 0 6.674-1.925 6.674-8.626 0-6.674-3.45-8.625-6.674-8.625H5.426c-1.425.001-1.575.926-1.575 2.752zm106.4 8.9h0zm-65.075 0h0zm-26.626 0h0zm5.926-8.5l.975-2.775h1.4L24.6 4.275z" fill="#cba837" stroke="#cba837" stroke-miterlimit="10" stroke-width=".2"></path>
    </symbol>
    <symbol id="linkedin" viewBox="0 0 48 48">
        <path d="M24,0A24,24,0,1,0,48,24,24,24,0,0,0,24,0ZM17.026,36.281H11.181V18.7h5.845ZM14.1,16.295h-.038a3.046,3.046,0,1,1,.077-6.076,3.048,3.048,0,1,1-.039,6.076Zm24,19.986H32.258V26.874c0-2.364-.846-3.977-2.961-3.977a3.2,3.2,0,0,0-3,2.138,4,4,0,0,0-.192,1.426v9.82H20.261s.077-15.935,0-17.585h5.845v2.49a5.8,5.8,0,0,1,5.268-2.9c3.846,0,6.729,2.513,6.729,7.915Zm0,0"/>
    </symbol>
    <symbol id="facebook" viewBox="0 0 48 48">
        <path d="M42,0H6A6.006,6.006,0,0,0,0,6V42a6.006,6.006,0,0,0,6,6H24V31.5H18V24h6V18a9,9,0,0,1,9-9h6v7.5H36c-1.656,0-3-.156-3,1.5v6h7.5l-3,7.5H33V48h9a6.006,6.006,0,0,0,6-6V6A6.006,6.006,0,0,0,42,0Z"/>
    </symbol>
    <symbol id="github" viewBox="0 0 48 46">
        <path d="M24,.5A23.792,23.792,0,0,0,0,24.084,23.623,23.623,0,0,0,16.41,46.46c1.2.222,1.64-.508,1.64-1.134,0-.56-.02-2.044-.03-4.01-6.676,1.422-8.084-3.164-8.084-3.164a6.287,6.287,0,0,0-2.67-3.45c-2.174-1.462.168-1.432.168-1.432A5.021,5.021,0,0,1,11.11,35.7c2.14,3.606,5.618,2.564,6.99,1.962a4.993,4.993,0,0,1,1.52-3.154c-5.33-.59-10.932-2.618-10.932-11.654a9.01,9.01,0,0,1,2.47-6.328,8.251,8.251,0,0,1,.21-6.242s2.01-.632,6.6,2.418a23.011,23.011,0,0,1,12,0c4.56-3.05,6.57-2.418,6.57-2.418a8.479,8.479,0,0,1,.24,6.242,9.047,9.047,0,0,1,2.46,6.328c0,9.06-5.61,11.054-10.95,11.634a5.6,5.6,0,0,1,1.62,4.364c0,3.156-.03,5.692-.03,6.458,0,.618.42,1.356,1.65,1.12A23.551,23.551,0,0,0,48,24.084,23.8,23.8,0,0,0,24,.5Z"/>
    </symbol>
    <symbol id="croix" viewBox="0 0 24.193 24.193">
        <line id="Ligne_2" x1="32.214" transform="translate(0.707 0.707) rotate(45)" fill="none" stroke="#fff" stroke-width="2"/>
        <line id="Ligne_10" x1="32.214" transform="translate(23.486 0.707) rotate(135)" fill="none" stroke="#fff" stroke-width="2"/>
    </symbol>

</svg>